<svg width="22" height="16" viewBox="0 0 22 16" fill="none" xmlns="http://www.w3.org/2000/svg">
<path fill-rule="evenodd" clip-rule="evenodd" d="M20.625 7V11.125H21.3125V12.5H18.5381C18.5542 12.6123 18.5625 12.727 18.5625 12.8438C18.5625 14.1727 17.4852 15.25 16.1562 15.25C14.8273 15.25 13.75 14.1727 13.75 12.8438C13.75 12.727 13.7583 12.6123 13.7744 12.5H8.22563C8.24169 12.6123 8.25 12.727 8.25 12.8438C8.25 14.1727 7.17269 15.25 5.84375 15.25C4.51481 15.25 3.4375 14.1727 3.4375 12.8438C3.4375 12.727 3.44581 12.6123 3.46187 12.5H0.6875V11.125H1.375V1.5C1.375 0.740608 1.99061 0.125 2.75 0.125H13.75C14.5094 0.125 15.125 0.740609 15.125 1.5V4.25H17.875C18.0573 4.25 18.2322 4.32243 18.3611 4.45136L20.4236 6.51386C20.5526 6.6428 20.625 6.81766 20.625 7ZM15.125 10.6691V5.625H17.5902L19.25 7.28477V11.125H17.8403C17.4063 10.6997 16.8119 10.4375 16.1562 10.4375C15.7872 10.4375 15.4376 10.5206 15.125 10.6691ZM13.75 11.125H7.52778C7.09378 10.6997 6.49939 10.4375 5.84375 10.4375C5.18811 10.4375 4.59372 10.6997 4.15972 11.125H2.75V1.5H13.75V11.125ZM5.84375 11.8125C5.27421 11.8125 4.8125 12.2742 4.8125 12.8438C4.8125 13.4133 5.27421 13.875 5.84375 13.875C6.41329 13.875 6.875 13.4133 6.875 12.8438C6.875 12.2742 6.41329 11.8125 5.84375 11.8125ZM15.125 12.8438C15.125 12.2742 15.5867 11.8125 16.1562 11.8125C16.7258 11.8125 17.1875 12.2742 17.1875 12.8438C17.1875 13.4133 16.7258 13.875 16.1562 13.875C15.5867 13.875 15.125 13.4133 15.125 12.8438Z" fill="black"/>
</svg>
