<svg width="164" height="41" viewBox="0 0 164 41" fill="none" xmlns="http://www.w3.org/2000/svg">
<g clip-path="url(#clip0_695_2903)">
<path d="M8.07651 2.09986C8.44592 1.60851 8.76541 1.14724 9.11486 0.716055C9.36446 0.4052 9.69394 0.335007 10.0833 0.455338C10.1932 0.485421 10.3629 0.455338 10.4527 0.385145C11.1616 -0.136289 11.2914 -0.126261 11.8605 0.565641C12.2599 0.475393 12.6692 0.0141248 13.0886 0.4052C13.3881 0.685972 13.5778 1.0971 13.8274 1.47815C14.1069 1.34779 14.4464 1.17732 14.8058 1.03694C14.9256 0.9868 15.1253 0.936662 15.1852 0.996827C15.2751 1.07705 15.305 1.26757 15.2951 1.39793C15.1852 2.35055 15.0654 3.29314 14.9256 4.24576C14.8857 4.52653 14.9856 4.697 15.1653 4.88753C16.0738 5.87023 17.0123 6.82285 17.851 7.85569C18.9293 9.17933 19.768 10.6734 20.357 12.2879C20.7564 13.3809 21.1158 14.4939 21.3555 15.6271C21.6849 17.2415 21.8547 18.886 21.6949 20.5406C21.5851 21.6235 21.4553 22.7166 21.2157 23.7795C20.7564 25.785 19.9477 27.6601 18.8794 29.425C17.4816 31.7313 15.4848 33.4962 13.6377 35.4014C13.0087 36.0432 12.3897 36.695 11.7307 37.3067C11.3613 37.6476 11.2315 38.0287 11.2515 38.51C11.2615 38.8108 11.2714 39.1016 11.2615 39.4024C11.2415 39.8838 10.9719 40.0643 10.3629 40.0141C9.94355 39.984 9.80377 39.8035 9.86367 39.3322C9.92358 38.8208 9.9735 38.3094 10.0833 37.8081C10.1532 37.4972 10.0534 37.2966 9.84371 37.0961C8.54576 35.8025 7.26779 34.4789 5.94988 33.1954C4.0429 31.3403 2.53529 29.2044 1.51691 26.7376C0.997729 25.4842 0.61833 24.1906 0.37871 22.8469C0.129106 21.4832 -0.0306409 20.1194 0.0692008 18.7356C0.159058 17.5323 0.338773 16.339 0.558425 15.1558C0.937824 13.0901 1.77649 11.2049 2.85478 9.41999C3.83323 7.7855 5.09124 6.38164 6.4391 5.058C7.18792 4.32598 7.14798 4.32598 6.79853 3.33325C6.55891 2.65138 6.54893 1.91936 6.72864 1.20741C6.79853 0.926634 7.07809 0.866469 7.27777 1.0971C7.52738 1.37788 7.74703 1.69876 7.97666 1.99958C8.0166 2.04972 8.08649 2.08983 8.11644 2.10989L8.07651 2.09986ZM13.3082 1.29765C13.3382 1.71881 13.2283 2.19011 13.6976 2.59121C13.6577 2.06978 13.6577 1.63859 13.2982 1.30768V0.876496C13.1684 1.04697 13.1085 1.11716 13.0486 1.20741C12.9088 0.936662 12.8589 0.545586 12.4895 0.645862C12.0103 0.786248 11.6109 1.08708 11.3613 1.57843C11.531 1.61854 11.6608 1.65865 11.8405 1.69876V2.93215C11.9104 2.85193 11.9603 2.79176 12.0203 2.7316C12.0402 2.97226 11.9204 3.17281 11.9304 3.36333C11.9803 4.44631 11.9504 5.53932 12.15 6.59221C12.2998 7.41448 12.0502 8.08632 11.8605 8.81834C11.8106 8.99883 11.7707 9.17933 11.7008 9.45007C12.0003 9.36985 12.2199 9.35983 12.3997 9.26958C13.7076 8.60776 14.2667 7.47464 14.3566 6.06075C14.4165 5.12819 14.1669 4.24576 13.7875 3.41347C13.448 2.6614 12.9987 1.9695 12.1001 1.77898C12.0702 1.77898 12.0502 1.71881 12.0203 1.6787C12.0402 1.63859 12.0602 1.60851 12.0802 1.5684C12.4396 1.68873 12.789 1.81909 13.0985 1.91936C13.1684 1.70879 13.2483 1.49821 13.3282 1.28763L13.3082 1.29765ZM12.4795 30.6283C12.4196 30.518 12.2699 30.3776 12.2998 30.2974C12.4596 29.8462 12.6193 29.3949 12.839 28.9738C13.7176 27.2891 14.6461 25.6246 15.5047 23.9299C15.994 22.9572 16.3933 21.9444 16.8226 20.9417C16.9824 20.5606 17.1122 20.1695 17.2819 19.6983C17.3318 19.9189 17.3618 20.0392 17.3917 20.1696C17.4317 20.1696 17.4716 20.1595 17.5116 20.1495C17.4616 19.8386 17.4117 19.5278 17.3618 19.2069C17.4017 19.2069 17.4417 19.2069 17.4716 19.1969C17.5115 19.3172 17.5415 19.4375 17.5814 19.5579C17.6214 19.5579 17.6513 19.5378 17.6913 19.5378C17.6413 19.2069 17.5914 18.876 17.5415 18.5351H17.6413C17.6913 18.6454 17.7312 18.7557 17.7811 18.876C17.8111 18.876 17.841 18.8559 17.871 18.8459C17.8111 18.4749 17.7612 18.1039 17.7012 17.7429C17.7412 17.7429 17.7811 17.7429 17.8111 17.7328C17.851 17.8732 17.9009 18.0036 17.9409 18.144C17.9708 18.144 18.0108 18.134 18.0407 18.1239C17.9808 17.6927 17.9309 17.2515 17.871 16.8203C17.9109 16.8203 17.9409 16.8203 17.9808 16.8203C18.0207 16.9507 18.0607 17.0811 18.1106 17.2114C18.1505 17.2114 18.1905 17.2114 18.2304 17.2014C18.2005 16.8404 18.1605 16.4694 18.1306 16.1786C18.2404 16.0582 18.3802 15.978 18.3802 15.8878C18.3802 15.2962 18.3402 14.7045 18.3303 14.1229C18.3303 13.8221 18.3402 13.5112 18.3602 13.2104C18.3702 12.9196 18.3902 12.6388 18.4101 12.3581C18.3802 12.3581 18.3402 12.3581 18.3103 12.3581C18.1406 12.9296 17.9608 13.4912 17.7911 14.0527C17.7412 14.0226 17.6713 13.9825 17.5215 13.8923C17.5914 14.1731 17.6413 14.3636 17.6913 14.5441C17.6713 14.5441 17.6413 14.5641 17.6214 14.5641C17.5715 14.4939 17.5215 14.4137 17.5016 14.3836C16.9425 15.3764 16.4233 16.3892 15.8342 17.3518C14.716 19.1568 13.5378 20.9316 12.4196 22.7366C12.15 23.1678 11.8306 23.6692 11.8006 24.1505C11.6409 27.0685 11.551 29.9865 11.4412 32.9146C11.4412 33.0349 11.4611 33.1553 11.4711 33.2856C11.6409 32.9547 11.7507 32.6439 11.8605 32.333C12.0702 31.7715 12.2798 31.2099 12.4795 30.6383C12.5195 30.5882 12.5794 30.5481 12.5993 30.498C12.9288 29.8361 13.2383 29.1543 13.5878 28.5025C14.7659 26.2864 16.0938 24.1505 16.9225 21.7539C16.9724 21.6235 16.9824 21.4832 17.0123 21.3428C16.593 22.0948 16.2935 22.877 15.9141 23.609C14.9256 25.5443 13.8873 27.4496 12.8989 29.3849C12.6992 29.776 12.3997 30.157 12.4895 30.6584L12.4795 30.6283ZM7.17793 4.82736C7.05812 4.85744 7.02817 4.85744 7.0082 4.8775C5.32088 6.48191 3.76334 8.19663 2.64512 10.2623C1.58679 12.2277 0.867935 14.3034 0.538457 16.5295C0.288853 18.1841 0.268884 19.8386 0.438615 21.4932C0.628314 23.2982 1.08759 25.043 1.79646 26.7176C2.66509 28.7732 3.8532 30.6183 5.38078 32.2227C6.64877 33.5564 7.9567 34.8299 9.25464 36.1334C9.30456 36.1836 9.38443 36.2237 9.48427 36.2939C9.4044 35.7323 9.26462 35.241 9.27461 34.7496C9.29458 33.4059 9.29457 32.0422 9.46431 30.7085C9.61407 29.4651 9.93356 28.2417 10.2431 27.0284C10.4428 26.2563 10.6824 25.5243 10.6824 24.712C10.6524 21.9043 10.6824 19.0966 10.6824 16.2889C10.6824 14.2132 10.7922 12.1475 10.5027 10.0818C10.4627 9.77096 10.3329 9.66065 10.0733 9.59046C9.85369 9.53029 9.62405 9.47013 9.41439 9.40996C7.96668 8.95872 7.12801 7.79552 7.16795 6.27133C7.16795 5.80004 7.16795 5.32874 7.16795 4.82736H7.17793ZM18.3502 10.6233C18.7196 10.7336 18.8494 11.0946 18.9393 11.4556C19.089 12.0472 19.2288 12.6489 19.3287 13.2606C19.5084 14.2733 19.728 15.2861 19.8079 16.2989C19.9477 18.0838 19.9876 19.8687 19.6581 21.6536C19.4385 22.8469 19.1789 24.0201 18.6497 25.1031C18.1406 26.166 17.5615 27.1889 16.9524 28.2016C15.305 30.9291 13.6277 33.6366 11.9703 36.3541C11.9304 36.4142 11.9304 36.5045 11.9004 36.695C12.0702 36.5346 12.17 36.4443 12.2499 36.3541C12.8789 35.7223 13.4979 35.1006 14.1269 34.4689C15.6944 32.9046 17.2819 31.3503 18.47 29.4451C19.3986 27.961 20.1474 26.3866 20.6066 24.702C20.9162 23.5388 21.1658 22.3455 21.2656 21.1523C21.3754 19.9189 21.3555 18.6554 21.2656 17.412C21.1757 16.1385 20.8862 14.885 20.4968 13.6516C20.0375 12.2077 19.4085 10.8439 18.6298 9.54032C17.6413 7.86572 16.3234 6.46186 14.9456 5.11816C14.9057 5.07805 14.8458 5.058 14.7759 5.01788C14.726 5.26857 14.6661 5.48918 14.6261 5.71982C14.6062 5.83012 14.6161 5.95045 14.6062 6.07078C14.5463 7.63508 13.8773 8.85845 12.4695 9.54032C11.9104 9.81107 11.7607 10.142 11.7607 10.6935C11.7607 14.7647 11.7607 18.8359 11.7607 22.8971C11.7607 22.9572 11.7906 23.0274 11.8006 23.0475C12.5794 21.8341 13.3382 20.6108 14.1369 19.4075C15.6345 17.1513 17.1721 14.9151 17.9509 12.2778C18.1006 11.7664 18.2005 11.235 18.3402 10.6333L18.3502 10.6233ZM15.7144 28.6027C15.934 28.3521 16.1637 28.1014 16.3833 27.8406C17.252 26.7878 18.0407 25.6947 18.5799 24.4313C19.3187 22.7166 19.5284 20.8915 19.6082 19.0565C19.6781 17.442 19.4784 15.8477 19.2488 14.2533C19.1889 13.8622 19.089 13.4711 19.0092 13.0901C18.8295 13.6015 18.6398 14.1129 18.6198 14.6243C18.5898 15.6371 18.49 16.6398 18.2604 17.6326C18.0307 18.6253 17.8211 19.6281 17.5814 20.6208C17.1921 22.2252 16.4932 23.7093 15.7344 25.1533C14.5163 27.4897 13.1085 29.7258 12.2 32.2127C12.1001 32.4934 12.0203 32.7742 11.9304 33.065C12.4296 32.5436 12.8589 32.0221 13.2882 31.5007C13.7575 30.9291 14.2867 30.3876 14.686 29.7659C15.4648 28.5325 16.2236 27.2691 16.9025 25.9655C17.4217 24.9728 17.831 23.9098 18.2404 22.867C18.4501 22.3255 18.5998 21.7539 18.7196 21.1823C18.8295 20.6509 18.8694 20.0994 18.9393 19.5579C18.9792 19.2069 19.0192 18.8559 19.0591 18.4949C19.2887 22.3155 17.5715 25.4842 15.7344 28.6328L15.7144 28.6027ZM11.561 2.17005C11.561 1.75892 11.4711 1.66867 10.8421 2.00961C10.4128 2.24025 10.0733 2.62129 9.69394 2.93215C9.64402 2.98229 9.57413 3.10262 9.56415 3.09259C9.27461 2.94218 9.22469 3.22295 9.12485 3.35331C8.36605 4.4062 8.3361 5.59948 8.54576 6.82285C8.62564 7.27409 8.72548 7.73536 8.91518 8.14649C9.27461 8.92864 9.95353 9.26958 10.7622 9.50021C11.2315 9.63057 11.1716 9.10914 11.4711 9.09911C11.5011 9.09911 11.541 8.96875 11.541 8.89856C11.6109 7.66516 11.7107 6.4418 11.7307 5.20841C11.7407 4.2959 11.6309 3.38339 11.561 2.16003V2.17005ZM10.7523 9.78098C10.7523 9.90131 10.7523 9.97151 10.7523 10.0317C10.8521 11.1548 11.0618 12.2779 11.0418 13.4009C10.922 20.9517 11.1816 28.5225 10.5326 36.0633C10.4428 37.1462 10.293 38.2392 10.1332 39.3122C10.0933 39.5629 10.1332 39.6932 10.3629 39.7233C10.5725 39.7534 10.8521 39.7634 10.8621 39.4526C10.8821 38.9913 10.932 38.51 10.8122 38.0688C10.6125 37.2666 10.6225 36.4944 10.8122 35.7123C10.892 35.3613 11.0119 35.0204 11.0518 34.6694C11.1117 34.0979 11.1317 33.5163 11.1516 32.9347C11.2615 29.064 11.4012 25.1833 11.4611 21.3127C11.5111 18.2242 11.4611 15.1357 11.4611 12.0372C11.4611 11.2951 11.551 10.5631 11.5909 9.78098H10.7423H10.7523ZM10.6225 27.0585C10.5725 27.1487 10.5426 27.1788 10.5326 27.2089C10.293 28.2418 10.0134 29.2646 9.83372 30.3074C9.52421 32.0723 9.35448 33.8472 9.68396 35.6321C9.75385 36.0332 9.91359 36.4142 10.0334 36.8053C10.3629 35.9028 10.7822 28.1014 10.6225 27.0485V27.0585ZM11.2415 37.0861C12.6692 34.7396 14.0371 32.4734 15.4149 30.2172C13.4979 31.982 11.9504 33.9875 11.2515 36.5446C11.2115 36.695 11.2515 36.8554 11.2515 37.0861H11.2415ZM8.43594 4.05524C8.91518 2.94218 9.67397 2.16003 10.8521 1.72884C10.6624 1.43804 10.5326 1.14724 10.3329 0.946689C9.92358 0.525531 9.54418 0.595724 9.28459 1.10713C9.23467 1.20741 9.20472 1.32774 9.13483 1.40796C9.07492 1.48818 8.97508 1.52829 8.90519 1.57843C8.90519 1.69876 8.92516 1.83914 8.93515 1.9695C8.90519 1.9695 8.88522 1.9695 8.85527 1.9695C8.81534 1.87925 8.76541 1.78901 8.67556 1.61854C8.47587 2.10989 8.27619 2.51099 8.13641 2.93215C7.93673 3.52378 7.99663 3.74438 8.42595 4.04521L8.43594 4.05524ZM7.43752 6.96323C7.48744 6.96323 7.54735 6.96323 7.59727 6.96323V4.85744C7.67714 5.54935 7.72706 6.25128 7.65717 6.93315C7.60725 7.35431 7.73704 7.69525 7.91676 8.01613C8.13641 8.40721 8.48586 8.698 8.9651 8.89856C8.93515 8.78825 8.93515 8.74814 8.91518 8.71806C8.15638 7.61503 7.93673 6.40169 8.19632 5.08808C8.23625 4.89755 8.28617 4.66692 8.21628 4.51651C7.87682 3.85469 7.49742 3.21292 7.13799 2.56113C7.09806 2.56113 7.06811 2.57116 7.02817 2.58118C6.97825 2.76168 6.93831 2.9522 6.87841 3.20289C7.01818 3.12267 7.08807 3.09259 7.20788 3.0224C7.15796 3.32322 7.10804 3.55386 7.06811 3.79452C7.09806 3.79452 7.12801 3.80455 7.16795 3.81458C7.21787 3.73436 7.26779 3.66416 7.31771 3.58394C7.36763 3.7143 7.33768 3.81458 7.31771 3.91485C7.28776 4.04521 7.2578 4.1856 7.26779 4.31595C7.32769 4.97777 7.39758 5.62957 7.45749 6.29139C7.47746 6.52202 7.45749 6.74263 7.45749 6.97326L7.43752 6.96323ZM10.8821 37.3067C10.8821 37.3067 10.9619 37.3167 11.0119 37.3267C11.0318 37.2666 11.0618 37.1964 11.0718 37.1362C11.1117 36.3139 11.3313 35.5318 11.6608 34.7898C12.4795 32.9246 13.7675 31.4105 15.2252 30.0367C15.6944 29.5955 16.1237 29.1342 16.4333 28.5626C16.5531 28.332 16.6928 28.1214 16.8326 27.9008C16.7328 27.8808 16.6928 27.9008 16.6629 27.9409C15.4249 29.3949 14.1768 30.8389 12.9488 32.3029C12.0103 33.426 11.2415 34.6494 11.0019 36.1234C10.932 36.5145 10.932 36.9156 10.892 37.3167L10.8821 37.3067ZM14.4364 4.54659C14.8857 4.05524 14.9756 2.74163 14.6561 2.27033C13.9472 3.10262 13.9073 3.33325 14.3566 3.87474C14.3865 3.72433 14.4165 3.59397 14.4464 3.46361C14.4764 3.46361 14.5063 3.47364 14.5363 3.48367C14.5063 3.81458 14.4764 4.14549 14.4364 4.55662V4.54659ZM7.75701 3.10262C7.80693 3.10262 7.85685 3.08256 7.90678 3.07254C7.90678 2.82185 7.98665 2.53105 7.88681 2.32047C7.71708 1.94945 7.43752 1.61854 7.1979 1.2776C7.15796 1.22746 7.05812 1.21743 6.97825 1.18735C6.95828 1.26757 6.89837 1.35782 6.90836 1.41799C7.06811 2.0397 7.36763 2.58118 7.74703 3.09259L7.75701 3.10262ZM10.9919 1.53832C11.1916 1.29765 11.4012 1.07705 11.571 0.836386C11.6109 0.77622 11.571 0.615779 11.521 0.545586C11.1916 0.154511 10.942 0.204649 10.5326 0.716055C10.6824 0.976772 10.8321 1.23749 11.0019 1.53832H10.9919ZM15.0455 1.25754C15.0455 1.25754 14.9856 1.20741 14.9556 1.18735C13.8074 1.68873 13.7076 1.82912 13.9172 2.76168C14.3266 2.22019 14.686 1.73887 15.0554 1.25754H15.0455Z" fill="white"/>
<path d="M15.4345 18.9365C14.3962 20.561 13.3578 22.1855 12.3394 23.7798C12.2396 23.489 14.3163 20.0696 15.4345 18.9365Z" fill="white"/>
<path d="M19.0687 14.2031C19.1287 15.4466 19.1887 16.68 19.2387 17.9234C19.2087 17.9234 19.1687 17.9234 19.1387 17.9234C19.0587 16.69 18.9687 15.4466 18.8887 14.2132C18.9487 14.2132 19.0087 14.2031 19.0687 14.1931V14.2031Z" fill="white"/>
<path d="M12.3301 5.89988V4.53613C12.3301 4.53613 12.3801 4.53613 12.4001 4.53613V5.89988C12.4001 5.89988 12.3501 5.89988 12.3301 5.89988Z" fill="white"/>
<path d="M43.0529 12.0372C42.5737 11.4355 42.1144 10.9241 41.6751 10.503C41.2458 10.0818 40.8164 9.77094 40.4071 9.57039C40.2074 9.48014 39.848 9.39992 39.3288 9.32973C38.8096 9.26956 38.2006 9.22945 37.5017 9.22945C37.3819 9.22945 37.2521 9.22945 37.0924 9.22945C36.9426 9.22945 36.7928 9.23948 36.653 9.2495C36.5133 9.2495 36.3835 9.25953 36.2537 9.26956C36.1339 9.26956 36.044 9.26956 35.9841 9.26956C35.9741 9.33975 35.9542 9.40995 35.9442 9.48014C35.9242 9.55033 35.9142 9.63055 35.9042 9.73083C35.8943 9.82108 35.8843 9.94141 35.8643 10.0918C35.8543 10.2422 35.8443 10.4227 35.8244 10.6333C35.8144 11.0444 35.8044 11.4957 35.7944 11.987C35.7944 12.4784 35.7944 12.9397 35.7944 13.3708V15.0555H36.1139C36.3036 15.0555 36.5133 15.0555 36.7429 15.0354C36.9725 15.0254 37.2122 15.0053 37.4518 14.9953C37.7014 14.9753 37.9011 14.9552 38.0708 14.9151C38.4901 14.8248 38.8296 14.6945 39.0792 14.5441C39.3288 14.3937 39.5185 14.2031 39.6583 13.9925C39.7981 13.782 39.8979 13.5513 39.9578 13.2906C40.0177 13.0399 40.0676 12.7592 40.1176 12.4684H40.3272V18.164H40.1176C40.0277 17.783 39.8879 17.3919 39.7082 16.9707C39.5285 16.5496 39.3188 16.2287 39.0792 16.0081C38.8595 15.8075 38.6199 15.6571 38.3703 15.5569C38.1207 15.4566 37.8212 15.3964 37.4817 15.3663C37.302 15.3563 37.1523 15.3463 37.0225 15.3362C36.8927 15.3362 36.7729 15.3362 36.653 15.3362H35.8044V17.5323C35.8044 17.8632 35.8044 18.164 35.8044 18.4448C35.8044 18.7256 35.8044 18.9562 35.8044 19.1568C35.8144 19.5378 35.8343 19.8888 35.8643 20.2297C35.8942 20.5706 35.9641 20.8213 36.064 20.9818C36.1738 21.1422 36.3535 21.2726 36.6031 21.3628C36.8527 21.4531 37.2221 21.5032 37.7014 21.5333V21.7138H32.0703V21.5333C32.3599 21.4831 32.6394 21.413 32.889 21.3027C33.1386 21.1923 33.3483 21.052 33.518 20.8614C33.5779 20.7912 33.6278 20.691 33.6578 20.5506C33.6977 20.4102 33.7277 20.2598 33.7576 20.0793C33.7876 19.8988 33.8076 19.7183 33.8175 19.5177C33.8275 19.3272 33.8375 19.1367 33.8375 18.9462C33.8375 18.7857 33.8375 18.5551 33.8375 18.2743C33.8375 17.9936 33.8475 17.6827 33.8575 17.3418C33.8575 17.0008 33.8575 16.6599 33.8575 16.3089V11.8366C33.8575 11.626 33.8575 11.4054 33.8575 11.1848C33.8575 10.9642 33.8375 10.7536 33.8175 10.5531C33.7976 10.3525 33.7676 10.172 33.7277 10.0116C33.6877 9.85116 33.6278 9.74086 33.558 9.67066C33.3782 9.48014 33.1985 9.35981 32.9988 9.30967C32.7992 9.25953 32.5396 9.20939 32.2201 9.15926V8.97876H42.0146L43.2126 11.9469L43.0329 12.0372H43.0529Z" fill="white"/>
<path d="M56.5716 21.7141H45.2695V21.5336C45.5591 21.4834 45.8486 21.4132 46.1382 21.3029C46.4277 21.1926 46.6473 21.0522 46.8171 20.8617C46.877 20.7915 46.9269 20.6912 46.9668 20.5509C47.0068 20.4105 47.0367 20.2601 47.0667 20.0796C47.0866 19.8991 47.1066 19.7186 47.1266 19.518C47.1466 19.3275 47.1565 19.137 47.1565 18.9465C47.1565 18.786 47.1565 18.5554 47.1565 18.2746C47.1565 17.9938 47.1665 17.683 47.1765 17.342C47.1765 17.0011 47.1765 16.6602 47.1765 16.3092V11.2352C47.1765 11.0247 47.1765 10.8241 47.1466 10.6436C47.1266 10.4631 47.1066 10.3027 47.0667 10.1523C47.0267 10.0119 46.9768 9.90158 46.9069 9.81133C46.7472 9.61078 46.5176 9.46036 46.248 9.35006C45.9684 9.23976 45.6789 9.16956 45.3794 9.13948V8.95898H51.0004V9.13948C50.8507 9.15954 50.671 9.19965 50.4513 9.24978C50.2416 9.29992 50.042 9.37011 49.8523 9.48042C49.6626 9.59072 49.5028 9.74114 49.363 9.93166C49.2233 10.1222 49.1534 10.3829 49.1434 10.7038C49.1334 11.1149 49.1234 11.496 49.1134 11.8369C49.1134 12.1778 49.1035 12.5188 49.0935 12.8497C49.0935 13.1806 49.0935 13.5215 49.0935 13.8725V17.0913C49.0935 17.4022 49.0935 17.7131 49.0935 18.0339C49.0935 18.3548 49.0935 18.7258 49.0935 19.1169C49.1035 19.498 49.1234 19.8489 49.1334 20.1999C49.1534 20.5408 49.2133 20.7915 49.3231 20.962C49.373 21.0222 49.4629 21.0823 49.6027 21.1425C49.7424 21.2027 49.9122 21.2528 50.1119 21.2929C50.3115 21.333 50.5312 21.3731 50.7608 21.4032C50.9905 21.4333 51.2301 21.4433 51.4697 21.4433C51.5596 21.4433 51.7093 21.4433 51.919 21.4433C52.1287 21.4433 52.3483 21.4233 52.5979 21.4032C52.8475 21.3832 53.0971 21.3631 53.3567 21.323C53.6163 21.2829 53.8459 21.2428 54.0456 21.1826C54.5149 21.0522 54.9043 20.8818 55.2138 20.6712C55.5233 20.4606 55.7928 20.2099 56.0125 19.9392C56.2322 19.6584 56.4219 19.3576 56.5716 19.0367C56.7214 18.7158 56.8711 18.3749 57.0109 18.0239L57.1906 18.0741L56.5417 21.7141H56.5716Z" fill="white"/>
<path d="M72.0864 17.8828C71.7369 18.685 71.2577 19.3769 70.6486 19.9686C70.0396 20.5602 69.3407 21.0114 68.532 21.3323C67.7233 21.6532 66.8746 21.8136 65.9661 21.8136C65.0575 21.8136 64.2288 21.6532 63.4301 21.3423C62.6314 21.0315 61.9325 20.5903 61.3334 20.0187C60.7344 19.4471 60.2651 18.7653 59.9157 17.9631C59.5662 17.1709 59.3965 16.2884 59.3965 15.3358C59.3965 14.323 59.5762 13.4105 59.9456 12.5983C60.305 11.7861 60.8042 11.1042 61.4133 10.5426C62.0323 9.98111 62.7512 9.54992 63.5799 9.24909C64.4085 8.94826 65.2772 8.79785 66.1957 8.79785C67.1941 8.79785 68.0927 8.97835 68.8814 9.32931C69.6702 9.68028 70.3491 10.1616 70.8983 10.7532C71.4474 11.3449 71.8767 12.0368 72.1662 12.8089C72.4558 13.591 72.6055 14.4033 72.6055 15.2456C72.6055 16.1882 72.4258 17.0606 72.0764 17.8628L72.0864 17.8828ZM70.1594 13.0997C69.9797 12.3677 69.7002 11.7058 69.3307 11.1142C68.9613 10.5226 68.502 10.0312 67.9529 9.66022C67.4038 9.2892 66.7448 9.09868 65.996 9.09868C65.2472 9.09868 64.5683 9.2892 64.0192 9.66022C63.46 10.0312 63.0008 10.5126 62.6413 11.1042C62.2819 11.6958 62.0223 12.3677 61.8526 13.1097C61.6829 13.8618 61.593 14.6138 61.593 15.386C61.593 16.1581 61.6829 16.9603 61.8726 17.7023C62.0623 18.4444 62.3418 19.0962 62.7112 19.6677C63.0806 20.2293 63.5399 20.6906 64.099 21.0315C64.6581 21.3724 65.3071 21.5429 66.0459 21.5429C66.7848 21.5429 67.4238 21.3524 67.9729 20.9814C68.522 20.6003 68.9713 20.119 69.3407 19.5274C69.7001 18.9357 69.9797 18.2639 70.1594 17.5218C70.3391 16.7798 70.429 16.0378 70.429 15.2957C70.429 14.5537 70.3391 13.8517 70.1594 13.1197V13.0997Z" fill="white"/>
<path d="M92.1242 9.40996C91.9146 9.54032 91.7948 9.63057 91.7648 9.67068C91.7249 9.71079 91.675 9.76093 91.6051 9.85118C91.5352 9.9314 91.4553 10.0517 91.3555 10.1921C91.2656 10.3425 91.1658 10.5331 91.0559 10.7537C90.9461 10.9843 90.8363 11.2651 90.7165 11.616C90.5268 12.1976 90.3071 12.8294 90.0675 13.5313C89.8179 14.2332 89.5683 14.9552 89.3187 15.6973C89.0691 16.4393 88.8095 17.1813 88.5499 17.9334C88.2903 18.6855 88.0507 19.3974 87.8311 20.0693L87.0922 21.7639H86.9125C86.593 20.9116 86.3035 20.0994 86.0239 19.3272C85.7444 18.5451 85.4848 17.803 85.2352 17.0811C84.9856 16.3591 84.736 15.6672 84.5063 14.9853C84.2667 14.3034 84.0271 13.6416 83.7875 12.9798C83.5978 13.5213 83.3981 14.0928 83.1884 14.6845C82.9788 15.2761 82.7691 15.8878 82.5594 16.4995C82.3498 17.1111 82.1401 17.7128 81.9204 18.3145C81.7108 18.9061 81.5011 19.4877 81.3014 20.0392L80.5226 21.774H80.313C79.9535 20.8213 79.6041 19.9088 79.2846 19.0465C78.9651 18.1841 78.6556 17.3618 78.3561 16.5596C78.0566 15.7674 77.767 14.9953 77.4875 14.2433C77.2079 13.4912 76.9283 12.7491 76.6388 12.0071C76.5589 11.7865 76.4791 11.5859 76.4192 11.4255C76.3592 11.2651 76.2993 11.1046 76.2394 10.9642C76.1895 10.8239 76.1296 10.6835 76.0697 10.5531C76.0098 10.4227 75.9499 10.2924 75.88 10.142C75.8401 10.0718 75.7901 9.98153 75.7302 9.88126C75.6703 9.77096 75.5705 9.67068 75.4607 9.5704C75.3409 9.47013 75.2011 9.37988 75.0413 9.30969C74.8816 9.22947 74.6619 9.18936 74.4023 9.17933V8.9888H79.3645V9.1693C79.3046 9.1693 79.2047 9.17933 79.065 9.20941C78.9252 9.22947 78.7754 9.26958 78.6257 9.32974C78.4759 9.38991 78.3361 9.48016 78.2263 9.59046C78.1165 9.71079 78.0566 9.87123 78.0566 10.0718C78.0566 10.1821 78.1165 10.4227 78.2463 10.8038C78.3661 11.1848 78.5258 11.6561 78.7255 12.1976C78.9252 12.7491 79.1448 13.3408 79.3845 13.9926C79.6241 14.6444 79.8637 15.2761 80.1033 15.9078C80.3429 16.5396 80.5726 17.1312 80.7822 17.6727C80.9919 18.2242 81.1616 18.6754 81.2914 19.0264C81.3314 18.9362 81.4112 18.6855 81.551 18.2944C81.6908 17.9033 81.8705 17.4019 82.0802 16.8103C82.2898 16.2187 82.5295 15.5468 82.7891 14.7948C83.0486 14.0427 83.3082 13.2606 83.5678 12.4483C83.3881 11.977 83.2284 11.5659 83.0886 11.2049C82.9488 10.8439 82.799 10.4929 82.6293 10.152C82.5794 10.0618 82.5195 9.96148 82.4396 9.85118C82.3597 9.74087 82.2599 9.6406 82.1201 9.54032C81.9803 9.44005 81.8206 9.35983 81.6209 9.28963C81.4212 9.22947 81.1816 9.18936 80.902 9.17933V8.9888H86.4133V9.1693C86.3434 9.17933 86.2136 9.19938 86.0339 9.21944C85.8542 9.23949 85.6745 9.28963 85.4848 9.3498C85.3051 9.40996 85.1353 9.51024 84.9956 9.62054C84.8458 9.74087 84.7759 9.88126 84.7759 10.0618C84.7759 10.1319 84.8358 10.3726 84.9656 10.7737C85.0954 11.1848 85.2551 11.6762 85.4548 12.2578C85.6545 12.8394 85.8742 13.4711 86.1238 14.163C86.3734 14.8449 86.603 15.5067 86.8326 16.1385C87.0523 16.7702 87.262 17.3317 87.4417 17.8331C87.6214 18.3345 87.7512 18.6955 87.841 18.9161C87.881 18.8359 87.9409 18.6554 88.0307 18.3947C88.1206 18.134 88.2304 17.803 88.3702 17.422C88.5 17.0409 88.6498 16.6098 88.8095 16.1385C88.9693 15.6672 89.129 15.1858 89.2887 14.6945C89.4485 14.2031 89.6082 13.7118 89.768 13.2305C89.9277 12.7391 90.0675 12.2879 90.1973 11.8567C90.357 11.3152 90.4569 10.9241 90.4769 10.6734C90.4968 10.4227 90.5168 10.2423 90.5168 10.1219C90.5168 9.94142 90.4669 9.80104 90.3571 9.69073C90.2472 9.58043 90.1174 9.48016 89.9677 9.40996C89.8179 9.32974 89.6482 9.2796 89.4784 9.22947C89.2987 9.18936 89.149 9.15927 88.9992 9.14925V8.96875H92.8731V9.14925C92.5835 9.18936 92.3339 9.26958 92.1242 9.39994V9.40996Z" fill="white"/>
<path d="M105.603 21.7138H94.8301V21.5333C95.1196 21.4831 95.3992 21.413 95.6488 21.3027C95.8984 21.1923 96.108 21.052 96.2778 20.8614C96.3377 20.7912 96.3876 20.691 96.4176 20.5506C96.4575 20.4102 96.4874 20.2598 96.5174 20.0793C96.5474 19.8988 96.5673 19.7183 96.5773 19.5177C96.5873 19.3272 96.5973 19.1367 96.5973 18.9462C96.5973 18.7857 96.5973 18.5551 96.5973 18.2743C96.5973 17.9936 96.6073 17.6827 96.6172 17.3418C96.6172 17.0008 96.6172 16.6599 96.6172 16.3089V11.8366C96.6172 11.626 96.6172 11.4054 96.6172 11.1848C96.6172 10.9642 96.5973 10.7536 96.5773 10.5531C96.5573 10.3525 96.5274 10.172 96.4874 10.0116C96.4475 9.85116 96.3876 9.74086 96.3177 9.67066C96.138 9.48014 95.9583 9.35981 95.7586 9.30967C95.5589 9.25953 95.2993 9.20939 94.9798 9.15926V8.97876H104.704L105.903 11.8968L105.723 11.987C104.774 10.7938 103.876 9.99155 103.047 9.58041C102.847 9.49017 102.478 9.39992 101.939 9.32973C101.4 9.25953 100.741 9.21942 99.9619 9.21942C99.7123 9.21942 99.4627 9.21942 99.1932 9.2495C98.9336 9.26956 98.7339 9.28962 98.6241 9.30967C98.6041 9.50019 98.5841 9.89127 98.5642 10.4729C98.5442 11.0645 98.5342 11.7464 98.5342 12.5285V13.6616C98.5342 13.9725 98.5342 14.2232 98.5342 14.4137C98.5342 14.6042 98.5342 14.7546 98.5342 14.8649V15.0555H98.8836C99.0634 15.0555 99.263 15.0555 99.4927 15.0354C99.7223 15.0254 99.952 15.0053 100.182 14.9953C100.411 14.9753 100.601 14.9552 100.751 14.9151C101.1 14.8349 101.4 14.7246 101.629 14.5741C101.859 14.4338 102.059 14.2633 102.198 14.0627C102.348 13.8622 102.458 13.6316 102.548 13.3608C102.638 13.1001 102.718 12.7993 102.787 12.4684H102.997V18.0437H102.787C102.698 17.6626 102.548 17.2816 102.358 16.8805C102.168 16.4794 101.959 16.1786 101.749 15.978C101.559 15.8176 101.34 15.6772 101.07 15.5669C100.811 15.4566 100.501 15.3964 100.142 15.3764C99.9619 15.3663 99.8222 15.3563 99.7024 15.3463C99.5825 15.3463 99.4627 15.3463 99.3529 15.3463H98.5442C98.5242 15.5067 98.5043 15.7574 98.5043 16.0683V18.1941C98.5043 18.3846 98.5043 18.5651 98.5043 18.7356C98.5043 18.9061 98.5043 19.0464 98.5043 19.1668C98.5142 19.5478 98.5342 19.8988 98.5642 20.2397C98.5941 20.5807 98.664 20.8314 98.7638 20.9918C98.8737 21.1522 99.1233 21.2726 99.5226 21.3428C99.922 21.413 100.351 21.4531 100.831 21.4531C101.03 21.4531 101.29 21.4531 101.599 21.433C101.909 21.423 102.238 21.3929 102.578 21.3428C102.957 21.2926 103.297 21.2024 103.616 21.072C103.936 20.9316 104.235 20.7411 104.535 20.5004C104.824 20.2498 105.114 19.9489 105.393 19.5879C105.673 19.2269 105.952 18.7958 106.252 18.2844L106.442 18.3345L105.563 21.7138H105.603Z" fill="white"/>
<path d="M118.814 21.7138C118.704 21.6035 118.634 21.5233 118.584 21.4731C118.534 21.423 118.484 21.3628 118.424 21.2826C118.364 21.2124 118.294 21.1121 118.205 20.9717C118.115 20.8314 117.975 20.6308 117.795 20.3601C117.576 20.0291 117.376 19.7283 117.206 19.4676C117.036 19.2069 116.867 18.9361 116.687 18.6855C116.507 18.4247 116.318 18.164 116.118 17.9033C115.908 17.6426 115.669 17.3418 115.389 17.0108C115.149 16.7401 114.9 16.4894 114.62 16.2488C114.341 16.0081 114.051 15.8677 113.752 15.8075C113.532 15.7574 113.362 15.7373 113.242 15.7373C113.133 15.7373 113.003 15.7373 112.833 15.7173V17.7128C112.833 18.2743 112.833 18.7556 112.853 19.1467C112.863 19.5278 112.873 19.8487 112.893 20.1194C112.903 20.3901 112.973 20.6107 113.083 20.7912C113.172 20.9417 113.362 21.1021 113.632 21.2625C113.901 21.423 114.281 21.5132 114.76 21.5333V21.7138H109.129V21.5333C109.418 21.4831 109.708 21.413 109.978 21.3227C110.247 21.2325 110.457 21.082 110.617 20.9015C110.676 20.8314 110.726 20.7211 110.756 20.5807C110.796 20.4403 110.816 20.2798 110.836 20.0993C110.856 19.9188 110.866 19.7383 110.876 19.5378C110.886 19.3372 110.896 19.1467 110.896 18.9562C110.896 18.7958 110.896 18.5651 110.896 18.2843C110.896 18.0036 110.906 17.6927 110.916 17.3518C110.916 17.0108 110.916 16.6699 110.916 16.3189V11.8466C110.916 11.6361 110.916 11.4155 110.916 11.2049C110.916 10.9843 110.896 10.7837 110.876 10.5832C110.856 10.3926 110.826 10.2122 110.786 10.0517C110.746 9.89127 110.686 9.78097 110.617 9.71077C110.437 9.52025 110.247 9.39992 110.027 9.32973C109.808 9.26956 109.548 9.20939 109.229 9.15926V8.97876H109.948C110.347 8.97876 110.796 8.97876 111.305 8.97876C111.815 8.97876 112.314 8.97876 112.823 8.97876H114.051C114.84 8.97876 115.539 8.99882 116.148 9.04895C116.757 9.09909 117.316 9.25953 117.825 9.53028C118.344 9.80102 118.754 10.172 119.073 10.6333C119.393 11.0946 119.552 11.6862 119.552 12.3881C119.552 12.8293 119.473 13.2204 119.313 13.5614C119.153 13.9123 118.943 14.2132 118.684 14.4839C118.424 14.7446 118.115 14.9752 117.755 15.1658C117.406 15.3563 117.036 15.5167 116.647 15.6471V15.6972C116.847 15.8075 117.036 15.958 117.226 16.1585C117.416 16.3591 117.595 16.5797 117.775 16.8304C118.085 17.2816 118.414 17.7629 118.774 18.2843C119.133 18.8058 119.453 19.2671 119.732 19.6682C120.161 20.2798 120.591 20.7311 121 21.0119C121.409 21.2926 121.889 21.4731 122.448 21.5634V21.7439H118.834L118.814 21.7138ZM117.066 10.6935C116.777 10.2322 116.347 9.87121 115.778 9.60047C115.499 9.47011 115.199 9.37986 114.89 9.3197C114.58 9.25953 114.251 9.22945 113.911 9.22945C113.662 9.22945 113.462 9.22945 113.312 9.2495C113.163 9.25953 113.043 9.26956 112.963 9.28962C112.953 9.35981 112.943 9.41997 112.923 9.48014C112.913 9.53028 112.903 9.60047 112.893 9.68069C112.893 9.76091 112.883 9.88124 112.873 10.0216C112.873 10.172 112.853 10.3826 112.843 10.6534C112.833 11.0645 112.823 11.5358 112.813 12.0472C112.813 12.5686 112.813 13.07 112.813 13.5513V15.4967C113.292 15.4967 113.742 15.4766 114.161 15.4365C114.58 15.3964 114.98 15.3062 115.369 15.1758C115.748 15.0555 116.068 14.895 116.337 14.6945C116.607 14.4939 116.827 14.2633 116.996 14.0126C117.166 13.7619 117.296 13.4811 117.376 13.1903C117.456 12.8995 117.496 12.5887 117.496 12.2678C117.496 11.6762 117.346 11.1547 117.056 10.6935H117.066Z" fill="white"/>
<path d="M135.466 21.7141H124.164V21.5336C124.454 21.4834 124.743 21.4132 125.033 21.3029C125.322 21.1926 125.542 21.0522 125.712 20.8617C125.772 20.7915 125.821 20.6912 125.861 20.5509C125.901 20.4105 125.931 20.2601 125.961 20.0796C125.981 19.8991 126.001 19.7186 126.021 19.518C126.041 19.3275 126.051 19.137 126.051 18.9465C126.051 18.786 126.051 18.5554 126.051 18.2746C126.051 17.9938 126.061 17.683 126.071 17.342C126.071 17.0011 126.071 16.6602 126.071 16.3092V11.2352C126.071 11.0247 126.071 10.8241 126.041 10.6436C126.021 10.4631 126.001 10.3027 125.961 10.1523C125.921 10.0119 125.871 9.90158 125.801 9.81133C125.642 9.61078 125.412 9.46036 125.143 9.35006C124.863 9.23976 124.573 9.16956 124.274 9.13948V8.95898H129.895V9.13948C129.745 9.15954 129.556 9.19965 129.346 9.24978C129.136 9.29992 128.936 9.37011 128.747 9.48042C128.557 9.59072 128.397 9.74114 128.268 9.93166C128.128 10.1222 128.058 10.3829 128.048 10.7038C128.038 11.1149 128.028 11.496 128.018 11.8369C128.018 12.1778 128.008 12.5188 127.998 12.8497C127.998 13.1806 127.998 13.5215 127.998 13.8725V17.0913C127.998 17.4022 127.998 17.7131 127.998 18.0339C127.998 18.3548 127.998 18.7258 127.998 19.1169C128.008 19.498 128.028 19.8489 128.038 20.1999C128.058 20.5408 128.118 20.7915 128.218 20.962C128.268 21.0222 128.357 21.0823 128.497 21.1425C128.637 21.2027 128.807 21.2528 129.006 21.2929C129.206 21.333 129.426 21.3731 129.655 21.4032C129.895 21.4333 130.125 21.4433 130.364 21.4433C130.454 21.4433 130.604 21.4433 130.814 21.4433C131.023 21.4433 131.243 21.4233 131.492 21.4032C131.742 21.3832 131.992 21.3631 132.251 21.323C132.511 21.2829 132.74 21.2428 132.94 21.1826C133.409 21.0522 133.799 20.8818 134.108 20.6712C134.418 20.4606 134.687 20.2099 134.907 19.9392C135.127 19.6584 135.316 19.3576 135.466 19.0367C135.616 18.7158 135.766 18.3749 135.905 18.0239L136.085 18.0741L135.436 21.7141H135.466Z" fill="white"/>
<path d="M145.611 21.7138V21.5333C145.611 21.5333 145.731 21.5232 145.87 21.4932C146.01 21.4731 146.15 21.433 146.29 21.3728C146.44 21.3127 146.569 21.2324 146.679 21.1221C146.789 21.0118 146.849 20.8815 146.849 20.711C146.849 20.6007 146.819 20.4302 146.749 20.1896C146.689 19.9489 146.589 19.6581 146.479 19.3072C146.36 18.9562 146.23 18.5751 146.07 18.144C145.92 17.7228 145.751 17.2816 145.581 16.8203H140.898C140.719 17.2716 140.549 17.6927 140.389 18.1038C140.229 18.515 140.06 18.9161 139.9 19.3372C139.65 19.969 139.531 20.4202 139.531 20.6809C139.531 20.8313 139.58 20.9617 139.67 21.062C139.76 21.1623 139.88 21.2425 140.03 21.3127C140.179 21.3728 140.339 21.423 140.509 21.4531C140.679 21.4831 140.838 21.5132 140.998 21.5333V21.7138H137.244V21.5232C137.554 21.4831 137.813 21.4029 138.023 21.2726C138.243 21.1422 138.362 21.052 138.402 21.0118C138.482 20.9316 138.622 20.7311 138.812 20.4302C139.001 20.1194 139.231 19.6681 139.501 19.0665C139.75 18.515 140.02 17.8832 140.329 17.1713C140.639 16.4593 140.948 15.7373 141.268 14.9853C141.587 14.2332 141.907 13.4811 142.226 12.719C142.546 11.9569 142.845 11.245 143.125 10.5832L142.945 10.1921C143.155 10.1018 143.344 9.98151 143.514 9.85115C143.684 9.72079 143.834 9.59043 143.963 9.44002C144.093 9.29963 144.203 9.15925 144.293 9.02889C144.383 8.89853 144.453 8.78823 144.493 8.70801H144.632C144.992 9.69071 145.341 10.6132 145.671 11.4957C146 12.3781 146.31 13.2204 146.609 14.0326C146.909 14.8449 147.198 15.6371 147.478 16.3891C147.757 17.1512 148.037 17.9033 148.327 18.6453C148.456 19.0063 148.576 19.3172 148.686 19.5578C148.796 19.7985 148.926 20.0693 149.065 20.3801C149.085 20.4302 149.145 20.5105 149.225 20.6308C149.305 20.7511 149.415 20.8715 149.555 20.9918C149.694 21.1121 149.854 21.2224 150.054 21.3227C150.254 21.4129 150.483 21.4731 150.763 21.4831V21.6937H145.621L145.611 21.7138ZM143.305 10.9943C143.235 11.1447 143.135 11.3854 142.995 11.7163C142.855 12.0472 142.695 12.4483 142.496 12.9196C142.296 13.3909 142.076 13.9223 141.837 14.524C141.597 15.1156 141.338 15.7674 141.058 16.4593H145.441C145.241 15.9279 145.042 15.3964 144.832 14.8649C144.622 14.3335 144.423 13.8221 144.233 13.3307C144.043 12.8394 143.864 12.3982 143.704 11.987C143.544 11.5759 143.414 11.245 143.305 10.9843V10.9943Z" fill="white"/>
<path d="M163.801 19.3774C163.671 19.7183 163.502 20.0191 163.292 20.2799C163.082 20.5406 162.843 20.7612 162.583 20.9417C162.324 21.1222 162.064 21.2626 161.804 21.3528C161.355 21.5132 160.856 21.6135 160.307 21.6536C159.758 21.6937 159.218 21.7038 158.709 21.7038H152.629V21.5233C152.918 21.4731 153.198 21.4029 153.468 21.2926C153.727 21.1823 153.947 21.042 154.107 20.8514C154.166 20.7812 154.216 20.681 154.246 20.5406C154.286 20.4002 154.316 20.2498 154.346 20.0693C154.376 19.8888 154.396 19.7083 154.406 19.5077C154.416 19.3172 154.426 19.1267 154.426 18.9362C154.426 18.7757 154.426 18.5451 154.426 18.2643C154.426 17.9835 154.436 17.6727 154.446 17.3317C154.446 16.9908 154.446 16.6499 154.446 16.2989V13.5614C154.446 13.3007 154.446 13.0399 154.446 12.7692C154.446 12.4985 154.446 12.1876 154.446 11.8366C154.446 11.6261 154.446 11.4055 154.426 11.1949C154.416 10.9743 154.396 10.7637 154.366 10.5631C154.336 10.3626 154.306 10.1821 154.256 10.0216C154.216 9.8612 154.156 9.7509 154.087 9.68071C153.907 9.49018 153.737 9.36985 153.557 9.29966C153.378 9.23949 153.138 9.18936 152.819 9.14925V8.96875H158.749C159.198 8.96875 159.618 8.99883 160.027 9.04897C160.437 9.09911 160.826 9.19938 161.195 9.33977C161.794 9.56038 162.284 9.90131 162.673 10.3626C163.062 10.8239 163.252 11.4055 163.252 12.1174C163.252 12.8996 163.002 13.5213 162.503 14.0026C162.004 14.4839 161.355 14.8048 160.556 14.9652V15.0354C160.976 15.0856 161.395 15.1858 161.804 15.3463C162.214 15.5067 162.583 15.7173 162.903 15.9881C163.222 16.2588 163.482 16.5797 163.681 16.9507C163.871 17.3217 163.971 17.7429 163.971 18.2142C163.971 18.6353 163.911 19.0264 163.781 19.3673L163.801 19.3774ZM160.806 10.5531C160.506 10.0918 160.137 9.76093 159.688 9.56038C159.159 9.31972 158.48 9.20941 157.661 9.20941C157.411 9.20941 157.192 9.21944 156.992 9.24952C156.792 9.26958 156.643 9.29966 156.533 9.33977C156.523 9.40996 156.513 9.48016 156.493 9.53029C156.473 9.58043 156.473 9.66065 156.463 9.7509C156.463 9.84115 156.453 9.95145 156.443 10.0818C156.443 10.2122 156.423 10.3826 156.413 10.5932C156.403 11.0043 156.393 11.4556 156.383 11.957C156.383 12.4483 156.383 12.9196 156.383 13.3709V15.0655H157.371C157.641 15.0655 157.861 15.0655 158.02 15.0455C159.079 14.9853 159.877 14.6845 160.427 14.143C160.976 13.6015 161.245 12.9296 161.245 12.1274C161.245 11.5358 161.095 11.0144 160.796 10.5531H160.806ZM161.774 17.4621C161.665 17.1613 161.515 16.8805 161.315 16.6298C161.125 16.3791 160.896 16.1585 160.626 15.978C160.367 15.7975 160.067 15.6471 159.758 15.5468C159.498 15.4666 159.248 15.4065 158.989 15.3764C158.739 15.3463 158.44 15.3363 158.1 15.3363H156.393V17.5423C156.393 17.8732 156.393 18.1741 156.393 18.4548C156.393 18.7356 156.393 18.9662 156.393 19.1668C156.403 19.618 156.423 19.979 156.453 20.2698C156.483 20.5606 156.563 20.8013 156.712 20.9818C156.822 21.1121 156.972 21.2224 157.192 21.3127C157.401 21.4029 157.711 21.4431 158.11 21.4431C158.45 21.4431 158.819 21.423 159.218 21.3729C159.618 21.3227 160.007 21.2024 160.377 21.0018C160.866 20.7411 161.255 20.4002 161.525 19.969C161.794 19.5378 161.934 19.0264 161.934 18.4248C161.934 18.0838 161.874 17.7629 161.764 17.4621H161.774Z" fill="white"/>
<path d="M43.0627 32.203L43.3223 31.8921C43.6318 32.2531 44.131 32.584 44.8 32.584C45.7784 32.584 46.048 32.0425 46.048 31.6314C46.048 30.2276 43.2025 30.9596 43.2025 29.295C43.2025 28.5128 43.9014 28.0215 44.76 28.0215C45.4689 28.0215 45.9981 28.2722 46.3675 28.6933L46.0979 28.9942C45.7584 28.583 45.2692 28.3925 44.7401 28.3925C44.1111 28.3925 43.6318 28.7535 43.6318 29.2749C43.6318 30.4983 46.4773 29.8264 46.4773 31.6013C46.4773 32.213 46.068 32.9551 44.79 32.9551C44.0112 32.9551 43.4122 32.6442 43.0527 32.193L43.0627 32.203Z" fill="white"/>
<path d="M54.3847 32.8744L53.9155 31.7012H51.3994L50.9302 32.8744H50.4609L52.4079 28.1113H52.917L54.864 32.8744H54.3947H54.3847ZM52.6475 28.5425L51.5292 31.3302H53.7657L52.6375 28.5425H52.6475Z" fill="white"/>
<path d="M59.1074 32.8744V28.1113H59.5168V32.5034H61.8131V32.8744H59.1074Z" fill="white"/>
<path d="M65.8066 30.4983C65.8066 29.1044 66.7152 28.0315 68.113 28.0315C69.5108 28.0315 70.4193 29.1044 70.4193 30.4983C70.4193 31.8921 69.5008 32.9651 68.113 32.9651C66.7252 32.9651 65.8066 31.8921 65.8066 30.4983ZM69.99 30.4983C69.99 29.2849 69.2512 28.4025 68.113 28.4025C66.9748 28.4025 66.236 29.2849 66.236 30.4983C66.236 31.7116 66.9648 32.594 68.113 32.594C69.2612 32.594 69.99 31.7016 69.99 30.4983Z" fill="white"/>
<path d="M78.3673 32.8744L75.382 28.7832V32.8744H74.9727V28.1113H75.382L78.3573 32.1524V28.1113H78.7666V32.8744H78.3673Z" fill="white"/>
<path d="M88.9006 32.8744V28.1113H91.9058V28.4823H89.3V30.2472H91.8559V30.6182H89.3V32.8744H88.8906H88.9006Z" fill="white"/>
<path d="M96.3086 32.8744V28.1113H96.7179V32.5034H99.0143V32.8744H96.3086Z" fill="white"/>
<path d="M103.008 30.4983C103.008 29.1044 103.916 28.0315 105.314 28.0315C106.712 28.0315 107.621 29.1044 107.621 30.4983C107.621 31.8921 106.702 32.9651 105.314 32.9651C103.926 32.9651 103.008 31.8921 103.008 30.4983ZM107.191 30.4983C107.191 29.2849 106.452 28.4025 105.314 28.4025C104.176 28.4025 103.437 29.2849 103.437 30.4983C103.437 31.7116 104.166 32.594 105.314 32.594C106.462 32.594 107.191 31.7016 107.191 30.4983Z" fill="white"/>
<path d="M114.959 32.8744L113.632 30.899H112.583V32.8744H112.174V28.1113H113.941C114.76 28.1113 115.389 28.6328 115.389 29.5052C115.389 30.3776 114.78 30.8489 114.071 30.8789L115.439 32.8744H114.949H114.959ZM114.969 29.5052C114.969 28.9035 114.54 28.4823 113.921 28.4823H112.593V30.528H113.921C114.55 30.528 114.969 30.0968 114.969 29.4951V29.5052Z" fill="white"/>
<path d="M119.961 32.8744V28.1113H120.371V32.8744H119.961Z" fill="white"/>
<path d="M124.844 32.203L125.104 31.8921C125.413 32.2531 125.912 32.584 126.581 32.584C127.56 32.584 127.829 32.0425 127.829 31.6314C127.829 30.2276 124.984 30.9596 124.984 29.295C124.984 28.5128 125.683 28.0215 126.541 28.0215C127.25 28.0215 127.779 28.2722 128.149 28.6933L127.879 28.9942C127.54 28.583 127.05 28.3925 126.521 28.3925C125.892 28.3925 125.413 28.7535 125.413 29.2749C125.413 30.4983 128.259 29.8264 128.259 31.6013C128.259 32.213 127.849 32.9551 126.571 32.9551C125.792 32.9551 125.203 32.6442 124.834 32.193L124.844 32.203Z" fill="white"/>
<path d="M133.979 32.8744V28.4823H132.432V28.1113H135.946V28.4823H134.399V32.8744H133.989H133.979Z" fill="white"/>
<path d="M140.338 32.8744V28.1113H140.748V32.8744H140.338Z" fill="white"/>
<path d="M145.311 30.4983C145.311 29.0343 146.369 28.0315 147.717 28.0315C148.476 28.0315 149.045 28.3624 149.444 28.8738L149.105 29.0944C148.805 28.6833 148.286 28.4025 147.717 28.4025C146.599 28.4025 145.74 29.2549 145.74 30.4983C145.74 31.7417 146.599 32.594 147.717 32.594C148.286 32.594 148.805 32.3133 149.105 31.9021L149.444 32.1127C149.025 32.6341 148.466 32.9651 147.717 32.9651C146.369 32.9651 145.311 31.9623 145.311 30.4983Z" fill="white"/>
</g>
<defs>
<clipPath id="clip0_695_2903">
<rect width="164" height="40" fill="white" transform="translate(0 0.0136719)"/>
</clipPath>
</defs>
</svg>
