<svg width="22" height="22" viewBox="0 0 22 22" fill="none" xmlns="http://www.w3.org/2000/svg">
<path fill-rule="evenodd" clip-rule="evenodd" d="M16.2152 7.96523C16.7522 7.42826 17.6228 7.42826 18.1598 7.96523L18.2188 8.02421L18.2777 7.96523C18.8147 7.42826 19.6853 7.42826 20.2223 7.96523C20.7592 8.5022 20.7592 9.3728 20.2223 9.90977L18.2188 11.9133L16.2152 9.90977C15.6783 9.3728 15.6783 8.5022 16.2152 7.96523Z" fill="black"/>
<path fill-rule="evenodd" clip-rule="evenodd" d="M11 9.625C13.2782 9.625 15.125 7.77817 15.125 5.5C15.125 3.22183 13.2782 1.375 11 1.375C8.72183 1.375 6.875 3.22183 6.875 5.5C6.875 7.77817 8.72183 9.625 11 9.625ZM11 8.25C12.5188 8.25 13.75 7.01878 13.75 5.5C13.75 3.98122 12.5188 2.75 11 2.75C9.48122 2.75 8.25 3.98122 8.25 5.5C8.25 7.01878 9.48122 8.25 11 8.25Z" fill="black"/>
<path d="M20.625 20.625C20.625 15.3093 16.3157 11 11 11C5.68426 11 1.375 15.3093 1.375 20.625H2.75C2.75 16.0687 6.44365 12.375 11 12.375C15.5563 12.375 19.25 16.0687 19.25 20.625H20.625Z" fill="black"/>
</svg>
