<svg width="32" height="33" viewBox="0 0 32 33" fill="none" xmlns="http://www.w3.org/2000/svg">
<path fill-rule="evenodd" clip-rule="evenodd" d="M3.02933 0.686768H28.9707C30.6347 0.686768 32 2.0521 32 3.7161V29.6574C32 31.3214 30.6347 32.6868 28.9707 32.6868H3.02933C1.36533 32.6868 0 31.3214 0 29.6574V3.7161C0 2.0521 1.36533 0.686768 3.02933 0.686768Z" fill="#2DC100"/>
<path fill-rule="evenodd" clip-rule="evenodd" d="M17.0241 6.1055C22.9121 6.91617 25.6001 9.77483 26.4108 15.6628C26.4108 16.3028 26.4108 16.9428 27.0508 16.9428C27.6908 16.9428 27.6908 16.4735 27.6908 16.0042C27.6908 16.0042 27.6908 15.8335 27.6908 15.7055C27.8615 10.1162 22.9121 5.03883 17.1948 4.86817C16.7255 4.86817 15.7441 4.5695 15.7441 5.50817C15.7441 6.1055 16.5548 5.93483 17.0241 6.1055Z" fill="#FEFEFE"/>
<path fill-rule="evenodd" clip-rule="evenodd" d="M18.1339 7.6841C17.4939 7.51343 16.8539 7.38543 16.6832 7.98276C16.5126 8.92143 17.3232 8.79343 17.9632 8.92143C21.6326 9.7321 22.9126 11.0121 23.5526 14.6388C23.5526 14.8094 23.5526 14.9374 23.5526 15.1081C23.5526 15.4068 23.7232 15.9188 24.3632 15.7481C24.6619 15.7481 24.8326 15.5774 24.8326 15.2788C24.8326 15.1081 24.8326 14.8094 24.8326 14.6388C24.8326 11.1828 21.8032 8.02543 18.1339 7.6841Z" fill="#FEFEFE"/>
<path fill-rule="evenodd" clip-rule="evenodd" d="M18.4748 10.4148C18.1761 10.4148 17.6641 10.5855 17.6641 10.8841C17.3654 11.5241 17.8348 11.6948 18.3041 11.6948C19.7548 11.9935 20.5228 12.8041 20.6934 14.2548C20.6934 14.5535 20.8641 14.7241 20.8641 14.8948C21.0348 14.8948 21.1628 15.0655 21.5041 15.0655L21.6748 14.8948C21.9734 14.7241 21.9734 14.4255 21.9734 14.0841C21.9734 12.2921 20.0534 10.4148 18.4748 10.4148Z" fill="#FEFEFE"/>
<path fill-rule="evenodd" clip-rule="evenodd" d="M26.1123 22.0201C25.3016 21.3801 24.5336 20.9108 23.8936 20.4414C22.3149 19.3321 20.8643 19.3321 19.5843 20.9108C18.9443 21.8494 18.1336 22.0201 17.1949 21.5508C14.5069 20.4414 12.4163 18.5214 11.3069 15.9614C11.1363 15.4921 11.0083 15.1508 11.0083 14.6814C10.8376 14.0414 11.1789 13.4014 11.9469 12.9321C12.5869 12.4628 13.2269 11.9934 13.2269 11.0121C13.2269 9.73209 10.0269 5.59343 8.91761 5.12409C8.44828 4.95343 7.97895 4.95343 7.33895 5.12409C4.48028 6.06276 3.37095 8.45209 4.48028 11.1828C5.12028 12.6334 5.93095 14.0414 6.69895 15.3214C10.1976 21.2094 15.2749 25.5188 21.9736 28.2068C22.4429 28.5054 22.9123 28.5054 23.0829 28.6761C25.0029 28.6761 27.2216 26.9268 27.8616 25.1774C28.3309 23.4708 27.0509 22.8308 26.1123 22.0201Z" fill="#FEFEFE"/>
</svg>
