<svg width="22" height="22" viewBox="0 0 22 22" fill="none" xmlns="http://www.w3.org/2000/svg">
<path fill-rule="evenodd" clip-rule="evenodd" d="M3.53547 1.70878C3.65972 1.50171 3.88351 1.375 4.125 1.375H17.875C18.1165 1.375 18.3403 1.50171 18.4645 1.70878L20.625 5.30957V8.25C20.625 9.26789 20.072 10.1566 19.25 10.6321V20.625H17.875V11C17.0022 11 16.2244 10.5934 15.7206 9.95933C15.1539 10.5977 14.3271 11 13.4062 11C12.4344 11 11.5672 10.5519 11 9.85096C10.4328 10.5519 9.56562 11 8.59375 11C7.67295 11 6.8461 10.5977 6.27936 9.95933C5.77559 10.5934 4.99778 11 4.125 11V20.625H2.75V10.6321C1.92802 10.1566 1.375 9.26789 1.375 8.25V5.30957L3.53547 1.70878ZM5.5 7.90625H6.875C6.875 8.85549 7.64451 9.625 8.59375 9.625C9.54299 9.625 10.3125 8.85549 10.3125 7.90625H11.6875C11.6875 8.85549 12.457 9.625 13.4062 9.625C14.3555 9.625 15.125 8.85549 15.125 7.90625H16.5V8.25C16.5 9.00939 17.1156 9.625 17.875 9.625C18.6344 9.625 19.25 9.00939 19.25 8.25V6.1875H2.75V8.25C2.75 9.00939 3.36561 9.625 4.125 9.625C4.88439 9.625 5.5 9.00939 5.5 8.25V7.90625ZM3.27676 4.8125L4.51426 2.75H17.4857L18.7232 4.8125H3.27676ZM13.0625 15.125H8.9375V20.625H13.0625V15.125Z" fill="black"/>
</svg>
