<svg width="22" height="21" viewBox="0 0 22 21" fill="none" xmlns="http://www.w3.org/2000/svg">
<path fill-rule="evenodd" clip-rule="evenodd" d="M11 3.69286L9.85542 2.8941C7.90677 1.5342 5.20284 1.72609 3.46447 3.46447C1.51184 5.41709 1.51184 8.58291 3.46447 10.5355L11 18.0711L18.5355 10.5355C20.4882 8.58291 20.4882 5.41709 18.5355 3.46447C16.7972 1.72609 14.0932 1.5342 12.1446 2.8941L11 3.69286ZM11 1.25399C8.27033 -0.650958 4.48604 -0.385537 2.05025 2.05025C-0.683417 4.78392 -0.683417 9.21608 2.05025 11.9497L10.2929 20.1924C10.6834 20.5829 11.3166 20.5829 11.7071 20.1924L19.9497 11.9497C22.6834 9.21608 22.6834 4.78392 19.9497 2.05025C17.514 -0.385537 13.7297 -0.650958 11 1.25399Z" fill="black"/>
</svg>
