<svg width="18" height="19" viewBox="0 0 18 19" fill="none" xmlns="http://www.w3.org/2000/svg">
<path d="M0 3.01367C0 1.35682 1.34315 0.0136719 3 0.0136719H15C16.6569 0.0136719 18 1.35682 18 3.01367V15.0137C18 16.6705 16.6569 18.0137 15 18.0137H11.6158L11.6158 11.3307H13.8275L14.1576 8.83562H11.6158L11.6158 6.80481C11.6158 6.03013 11.8204 5.5091 12.89 5.5091H14.25V3.11651C14.0123 3.08223 13.2069 3.01367 12.2694 3.01367C10.3085 3.01367 8.96831 4.25453 8.96831 6.53744L8.96831 8.83562H6.75V11.3307H8.96831L8.96831 18.0137H3C1.34315 18.0137 0 16.6705 0 15.0137V3.01367Z" fill="white"/>
</svg>
