<svg width="24" height="25" viewBox="0 0 24 25" fill="none" xmlns="http://www.w3.org/2000/svg">
<path d="M23.5861 19.8755H0.413811C0.185296 19.8755 0 19.6902 0 19.4617V4.56518C0 4.33666 0.185296 4.15137 0.413811 4.15137H23.5861C23.8147 4.15137 24 4.33666 24 4.56518V19.4617C23.9999 19.6902 23.8146 19.8755 23.5861 19.8755Z" fill="#41479B"/>
<path d="M23.9999 4.56518C23.9999 4.33666 23.8146 4.15137 23.5861 4.15137H21.7348L14.0689 9.17386V4.15137H9.93095V9.17386L2.26508 4.15137H0.413811C0.185296 4.15137 0 4.33666 0 4.56518V5.63538L6.57696 9.94444H0V14.0824H6.57696L0 18.3915V19.4617C0 19.6902 0.185296 19.8755 0.413811 19.8755H2.26513L9.93104 14.853V19.8755H14.069V14.853L21.7349 19.8755H23.5862C23.8147 19.8755 24 19.6902 24 19.4617V18.3915L17.423 14.0824H23.9999V9.94448H17.4229L23.9999 5.63538V4.56518Z" fill="#F5F5F5"/>
<path d="M23.9999 10.7721H13.2413V4.15137H10.7586V10.7721H0V13.2548H10.7586V19.8755H13.2413V13.2548H23.9999V10.7721Z" fill="#FF4B55"/>
<path d="M8.38815 14.0825L0.0117188 19.5199C0.0410155 19.7197 0.20578 19.8756 0.413764 19.8756H0.983715L9.90821 14.0826H8.38815V14.0825Z" fill="#FF4B55"/>
<path d="M16.2369 14.0825H14.7168L23.6283 19.8671C23.836 19.8449 24 19.6753 24 19.4618V19.1216L16.2369 14.0825Z" fill="#FF4B55"/>
<path d="M0 5.02214L7.58336 9.94465H9.10342L0.241077 4.19189C0.0995152 4.25766 0 4.39899 0 4.56535V5.02214Z" fill="#FF4B55"/>
<path d="M15.5889 9.94443L23.9854 4.49397C23.9506 4.30076 23.7893 4.15137 23.586 4.15137H22.9932L14.0688 9.94443H15.5889Z" fill="#FF4B55"/>
</svg>
