<svg width="22" height="22" viewBox="0 0 22 22" fill="none" xmlns="http://www.w3.org/2000/svg">
<path fill-rule="evenodd" clip-rule="evenodd" d="M8.25 1.375C9.37448 1.375 10.3728 1.91492 11 2.74967C11.6272 1.91492 12.6255 1.375 13.75 1.375C15.6485 1.375 17.1875 2.91402 17.1875 4.8125C17.1875 5.58635 16.9318 6.30048 16.5003 6.875H18.5625C19.3219 6.875 19.9375 7.49061 19.9375 8.25V19.25C19.9375 20.0094 19.3219 20.625 18.5625 20.625H3.4375C2.67811 20.625 2.0625 20.0094 2.0625 19.25V8.25C2.0625 7.49061 2.67811 6.875 3.4375 6.875H5.49975C5.06821 6.30048 4.8125 5.58635 4.8125 4.8125C4.8125 2.91402 6.35152 1.375 8.25 1.375ZM8.25 2.75C9.38909 2.75 10.3125 3.67341 10.3125 4.8125V6.875H8.25C7.11091 6.875 6.1875 5.95159 6.1875 4.8125C6.1875 3.67341 7.11091 2.75 8.25 2.75ZM10.3125 8.25V19.25H3.4375V8.25H10.3125ZM11.6875 19.25H18.5625V8.25H11.6875V19.25ZM15.8125 4.8125C15.8125 5.95159 14.8891 6.875 13.75 6.875H11.6875V4.8125C11.6875 3.67341 12.6109 2.75 13.75 2.75C14.8891 2.75 15.8125 3.67341 15.8125 4.8125Z" fill="black"/>
</svg>
