<svg width="22" height="22" viewBox="0 0 22 22" fill="none" xmlns="http://www.w3.org/2000/svg">
<path fill-rule="evenodd" clip-rule="evenodd" d="M11 7.5625C8.72183 7.5625 6.875 9.40933 6.875 11.6875C6.875 13.9657 8.72183 15.8125 11 15.8125C13.2782 15.8125 15.125 13.9657 15.125 11.6875C15.125 9.40933 13.2782 7.5625 11 7.5625ZM8.25 11.6875C8.25 10.1687 9.48122 8.9375 11 8.9375C12.5188 8.9375 13.75 10.1687 13.75 11.6875C13.75 13.2063 12.5188 14.4375 11 14.4375C9.48122 14.4375 8.25 13.2063 8.25 11.6875Z" fill="black"/>
<path fill-rule="evenodd" clip-rule="evenodd" d="M14.1143 2.75H7.88206L6.50706 4.8125H4.125C2.60622 4.8125 1.375 6.04372 1.375 7.5625V15.8125C1.375 17.3313 2.60622 18.5625 4.125 18.5625H17.875C19.3938 18.5625 20.625 17.3313 20.625 15.8125V7.5625C20.625 6.04372 19.3938 4.8125 17.875 4.8125H15.5139L14.1143 2.75ZM7.24294 6.1875L8.61794 4.125H13.3857L14.7852 6.1875H17.875C18.6344 6.1875 19.25 6.80311 19.25 7.5625V15.8125C19.25 16.5719 18.6344 17.1875 17.875 17.1875H4.125C3.36561 17.1875 2.75 16.5719 2.75 15.8125V7.5625C2.75 6.80311 3.36561 6.1875 4.125 6.1875H7.24294Z" fill="black"/>
</svg>
