<svg width="16" height="16" viewBox="0 0 16 16" fill="none" xmlns="http://www.w3.org/2000/svg">
<path d="M5.77639 1.55279C5.607 1.214 5.26074 1 4.88197 1H2C1.44772 1 1 1.44772 1 2V3C1 9.62742 6.37258 15 13 15H14C14.5523 15 15 14.5523 15 14V11.118C15 10.7393 14.786 10.393 14.4472 10.2236L12.967 9.4835C12.3895 9.19476 11.6921 9.30794 11.2355 9.76448L10 11L9.57039 10.8568C7.48016 10.1601 5.83995 8.51984 5.1432 6.42961L5 6L6.23552 4.76448C6.69206 4.30794 6.80524 3.61048 6.5165 3.033L5.77639 1.55279Z" fill="#499777"/>
</svg>
