<svg width="14" height="15" viewBox="0 0 14 15" fill="none" xmlns="http://www.w3.org/2000/svg">
<path d="M4.77639 0.566458C4.607 0.227674 4.26074 0.0136719 3.88197 0.0136719H1C0.447715 0.0136719 0 0.461387 0 1.01367V2.01367C0 8.64109 5.37258 14.0137 12 14.0137H13C13.5523 14.0137 14 13.566 14 13.0137V10.1317C14 9.75293 13.786 9.40667 13.4472 9.23728L11.967 8.49717C11.3895 8.20843 10.6921 8.32161 10.2355 8.77815L9 10.0137L8.57039 9.87047C6.48016 9.17372 4.83995 7.53352 4.1432 5.44328L4 5.01367L5.23552 3.77815C5.69206 3.32161 5.80524 2.62415 5.5165 2.04667L4.77639 0.566458Z" fill="white"/>
</svg>
