<svg width="21" height="21" viewBox="0 0 21 21" fill="none" xmlns="http://www.w3.org/2000/svg">
<path d="M20.9669 15.8731L20.0154 20.0074C19.88 20.5898 19.3673 21 18.7644 21C8.4163 21 0 12.5837 0 2.23559C0 1.63267 0.410151 1.11998 0.992566 0.984627L5.12689 0.0330767C5.72981 -0.106375 6.34504 0.20534 6.59523 0.77545L8.50243 5.22559C8.72391 5.75058 8.57626 6.36171 8.1333 6.71854L5.92668 8.49039C7.3212 11.3286 9.63035 13.6378 12.4686 15.0323L14.2774 12.8257C14.6342 12.3827 15.2494 12.231 15.7744 12.4566L20.2246 14.3638C20.7577 14.6509 21.1064 15.2743 20.9669 15.8731Z" fill="#8E979C"/>
</svg>
