<svg width="16" height="16" viewBox="0 0 16 16" fill="none" xmlns="http://www.w3.org/2000/svg">
<path fill-rule="evenodd" clip-rule="evenodd" d="M1 4C1 3.44772 1.44772 3 2 3H10C10.5523 3 11 3.44772 11 4V6H13C13.1326 6 13.2598 6.05268 13.3536 6.14645L14.8536 7.64645C14.9473 7.74021 15 7.86739 15 8V11H15.5V12H13.4823C13.494 12.0817 13.5 12.1651 13.5 12.25C13.5 13.2165 12.7165 14 11.75 14C10.7835 14 10 13.2165 10 12.25C10 12.1651 10.006 12.0817 10.0177 12H5.98228C5.99396 12.0817 6 12.1651 6 12.25C6 13.2165 5.2165 14 4.25 14C3.2835 14 2.5 13.2165 2.5 12.25C2.5 12.1651 2.50604 12.0817 2.51772 12H0.5V11H1V4ZM4.25 11.5C3.83579 11.5 3.5 11.8358 3.5 12.25C3.5 12.6642 3.83579 13 4.25 13C4.66421 13 5 12.6642 5 12.25C5 11.8358 4.66421 11.5 4.25 11.5ZM11 12.25C11 11.8358 11.3358 11.5 11.75 11.5C12.1642 11.5 12.5 11.8358 12.5 12.25C12.5 12.6642 12.1642 13 11.75 13C11.3358 13 11 12.6642 11 12.25Z" fill="#8E979C"/>
</svg>
