<svg width="24" height="25" viewBox="0 0 24 25" fill="none" xmlns="http://www.w3.org/2000/svg">
<path d="M9 12.0137C9 10.3568 10.3431 9.01367 12 9.01367C13.6569 9.01367 15 10.3568 15 12.0137C15 13.6705 13.6569 15.0137 12 15.0137C10.3431 15.0137 9 13.6705 9 12.0137Z" fill="white"/>
<path fill-rule="evenodd" clip-rule="evenodd" d="M6 3.01367C4.34315 3.01367 3 4.35682 3 6.01367V18.0137C3 19.6705 4.34315 21.0137 6 21.0137H18C19.6569 21.0137 21 19.6705 21 18.0137V6.01367C21 4.35682 19.6569 3.01367 18 3.01367H6ZM18 7.13867C18 7.75999 17.4963 8.26367 16.875 8.26367C16.2537 8.26367 15.75 7.75999 15.75 7.13867C15.75 6.51735 16.2537 6.01367 16.875 6.01367C17.4963 6.01367 18 6.51735 18 7.13867ZM12 7.51367C9.51472 7.51367 7.5 9.52839 7.5 12.0137C7.5 14.499 9.51472 16.5137 12 16.5137C14.4853 16.5137 16.5 14.499 16.5 12.0137C16.5 9.52839 14.4853 7.51367 12 7.51367Z" fill="white"/>
</svg>
