<svg width="32" height="33" viewBox="0 0 32 33" fill="none" xmlns="http://www.w3.org/2000/svg">
<path d="M4 0.686768H28C30.2062 0.686768 32 2.48052 32 4.68677V28.6868C32 30.893 30.2062 32.6868 28 32.6868H4C1.79375 32.6868 0 30.893 0 28.6868V4.68677C0 2.48052 1.7875 0.686768 4 0.686768Z" fill="#64A9DC"/>
<path d="M26.5688 6.57427L4.92508 14.9243C3.45008 15.518 3.45633 16.343 4.65633 16.7055L10.0563 18.393L12.1251 24.7243C12.3751 25.418 12.2501 25.693 12.9813 25.693C13.5438 25.693 13.7938 25.4368 14.1063 25.1305C14.3063 24.9368 15.4876 23.7868 16.8063 22.5055L22.4251 26.6555C23.4563 27.2243 24.2063 26.9305 24.4626 25.693L28.1501 8.32427C28.5126 6.81177 27.5563 6.12427 26.5688 6.57427ZM10.9001 18.0055L23.0688 10.3305C23.6751 9.96177 24.2313 10.1618 23.7751 10.568L13.3563 19.968L12.9501 24.293L10.9001 18.0055Z" fill="white"/>
</svg>
