<svg width="32" height="33" viewBox="0 0 32 33" fill="none" xmlns="http://www.w3.org/2000/svg">
<path d="M4 0.686768H28C30.2062 0.686768 32 2.48052 32 4.68677V28.6868C32 30.893 30.2062 32.6868 28 32.6868H4C1.79375 32.6868 0 30.893 0 28.6868V4.68677C0 2.48052 1.79375 0.686768 4 0.686768Z" fill="#7B519D"/>
<path fill-rule="evenodd" clip-rule="evenodd" d="M26.3739 22.2777C25.6113 21.6604 24.7942 21.1156 23.9953 20.5528C22.3975 19.427 20.9358 19.3453 19.7374 21.1519C19.0656 22.1688 18.1305 22.2142 17.15 21.7693C14.4446 20.5437 12.3565 18.6553 11.1308 15.9045C10.5861 14.6879 10.5952 13.5985 11.8662 12.736C12.538 12.2821 13.2099 11.7464 13.1554 10.7478C13.0828 9.44954 9.94153 5.11901 8.69776 4.66507C8.18027 4.47442 7.67187 4.49258 7.1453 4.66507C4.23105 5.64557 3.02358 8.04234 4.17658 10.8749C7.62647 19.3362 13.691 25.2374 22.0434 28.8325C22.5155 29.0413 23.0511 29.123 23.3144 29.1957C25.2119 29.2138 27.4452 27.3799 28.0898 25.5642C28.7162 23.8029 27.4089 23.1129 26.3739 22.2777Z" fill="white"/>
<path fill-rule="evenodd" clip-rule="evenodd" d="M17.0052 5.52763C23.1151 6.46273 25.9295 9.36791 26.7103 15.5233C26.7829 16.0952 26.5741 16.9486 27.3821 16.9577C28.2264 16.9758 28.0267 16.1315 28.0358 15.5596C28.1084 9.76737 23.0606 4.39279 17.1867 4.20214C16.7419 4.26569 15.8249 3.89347 15.7705 4.89212C15.7251 5.55487 16.4968 5.44592 17.0052 5.52763Z" fill="white"/>
<path fill-rule="evenodd" clip-rule="evenodd" d="M18.1939 7.21636C17.6038 7.14373 16.8321 6.87137 16.6959 7.67937C16.5507 8.53276 17.4131 8.45106 17.976 8.56908C21.7437 9.4134 23.0601 10.7843 23.6774 14.5247C23.7682 15.0694 23.5866 15.9228 24.5127 15.7775C25.2026 15.6686 24.9484 14.9423 25.012 14.5156C25.0483 10.9386 21.9706 7.67029 18.1939 7.21636Z" fill="white"/>
<path fill-rule="evenodd" clip-rule="evenodd" d="M18.5484 10.1487C18.158 10.1578 17.7676 10.2032 17.6314 10.6208C17.4135 11.2472 17.8675 11.3925 18.3305 11.4742C19.8739 11.7193 20.6909 12.6362 20.8453 14.1796C20.8907 14.5972 21.154 14.9422 21.5534 14.8877C22.1163 14.8242 22.1617 14.3249 22.1435 13.8437C22.1798 12.1097 20.2188 10.1124 18.5484 10.1487Z" fill="white"/>
</svg>
