<svg width="32" height="33" viewBox="0 0 32 33" fill="none" xmlns="http://www.w3.org/2000/svg">
<path d="M4 0.686768H28C30.2062 0.686768 32 2.48052 32 4.68677V28.6868C32 30.893 30.2062 32.6868 28 32.6868H4C1.79375 32.6868 0 30.893 0 28.6868V4.68677C0 2.48052 1.79375 0.686768 4 0.686768Z" fill="#65BC54"/>
<path fill-rule="evenodd" clip-rule="evenodd" d="M28.5 16.368C28.5 23.093 23.0063 28.543 16.225 28.543C14.075 28.543 12.05 27.993 10.2937 27.0305L3.5 29.1868L5.7125 22.6555C4.59375 20.818 3.95 18.668 3.95 16.368C3.95625 9.63677 9.45 4.18677 16.225 4.18677C23.0063 4.18677 28.5 9.63677 28.5 16.368ZM16.225 6.12427C10.5375 6.12427 5.90625 10.718 5.90625 16.3618C5.90625 18.5993 6.6375 20.6743 7.86875 22.3618L6.58125 26.1618L10.5437 24.8993C12.175 25.968 14.125 26.593 16.2188 26.593C21.9062 26.593 26.5375 21.9993 26.5375 16.3555C26.5375 10.7118 21.9188 6.12427 16.225 6.12427ZM22.425 19.168C22.35 19.043 22.15 18.968 21.85 18.818C21.55 18.668 20.0688 17.9493 19.7938 17.8493C19.5188 17.7493 19.3187 17.6993 19.1187 17.9993C18.9187 18.2993 18.3438 18.968 18.1688 19.168C17.9938 19.368 17.8187 19.393 17.5187 19.243C17.2187 19.093 16.25 18.7805 15.1 17.7618C14.2063 16.968 13.6 15.993 13.425 15.693C13.25 15.393 13.4062 15.2305 13.5562 15.0868C13.6937 14.9555 13.8563 14.7368 14.0063 14.5618C14.1563 14.3868 14.2062 14.2618 14.3062 14.0618C14.4062 13.8618 14.3563 13.6868 14.2812 13.5368C14.2062 13.3868 13.6062 11.918 13.3562 11.3243C13.1062 10.7243 12.8562 10.8243 12.6812 10.8243C12.5062 10.8243 12.3062 10.7993 12.1062 10.7993C11.9062 10.7993 11.5812 10.8743 11.3062 11.1743C11.0312 11.4743 10.2563 12.193 10.2563 13.6618C10.2563 15.1305 11.3313 16.5493 11.4875 16.7493C11.6375 16.9493 13.5687 20.0618 16.625 21.2555C19.6813 22.4493 19.6812 22.0493 20.2375 21.9993C20.7875 21.9493 22.0187 21.2805 22.2687 20.5805C22.5 19.893 22.5 19.293 22.425 19.168Z" fill="white"/>
</svg>
